<?xml version="1.0" standalone="yes"?>
<svg width="48" height="48">
<path style="fill:#000000; stroke:none;" d="M0 0L0 48L48 48L48 0L0 0z"/>
<path style="fill:#f32536; stroke:none;" d="M6 6L6 42L18 39C-4.42626 25.7563 34.752 9.87275 37 30C44.7062 25.956 42 13.4807 42 6L6 6z"/>
<path style="fill:#ffffff; stroke:none;" d="M15 8L17 19L18 19L19 12L15 8z"/>
<path style="fill:#f6a2ab; stroke:none;" d="M19 8L17 12C19.6489 11.4324 20.3548 10.4122 19 8z"/>
<path style="fill:#f07480; stroke:none;" d="M20.3333 8.66667L20.6667 9.33333L20.3333 8.66667z"/>
<path style="fill:#ffffff; stroke:none;" d="M22 11L21 19L25 19L24 11L22 11z"/>
<path style="fill:#eb6875; stroke:none;" d="M26 11L26 19L27 19L26 11z"/>
<path style="fill:#ffffff; stroke:none;" d="M27 11L27 19L31 19L31 11L30 11L30 18L28 18L27 11z"/>
<path style="fill:#eb7a84; stroke:none;" d="M28 11L28 18L30 18L30 11L28 11z"/>
<path style="fill:#ea5766; stroke:none;" d="M19 12L20 18L21 18L19 12z"/>
<path style="fill:#ec5f6c; stroke:none;" d="M22 13L22 18L24 18L24 13L22 13z"/>
<path style="fill:#f8c9ce; stroke:none;" d="M18 14L18 19L19 19L18 14z"/>
<path style="fill:#ec6f7c; stroke:none;" d="M17.6667 19.3333L18.3333 19.6667L17.6667 19.3333z"/>
<path style="fill:#f29fa8; stroke:none;" d="M22.6667 19.3333L23.3333 19.6667L22.6667 19.3333z"/>
<path style="fill:#e7747f; stroke:none;" d="M27 19L27 20L31 20L27 19z"/>
<path style="fill:#e46872; stroke:none;" d="M15 21L15 22L33 22L15 21z"/>
<path style="fill:#ffffff; stroke:none;" d="M13.6034 23.0278C11.0288 25.0669 11.0288 33.9331 13.6034 35.9722C16.5237 38.2852 31.4763 38.2852 34.3966 35.9722C36.9712 33.9331 36.9712 25.0669 34.3966 23.0278C31.4763 20.7148 16.5237 20.7148 13.6034 23.0278z"/>
<path style="fill:#e22332; stroke:none;" d="M14 24L16 35L17 35L19 24L14 24z"/>
<path style="fill:#f8d3d6; stroke:none;" d="M24 24L23 35L25 35L24 24z"/>
<path style="fill:#d12431; stroke:none;" d="M25 24L25 35L29 35L29 27L25 24z"/>
<path style="fill:#e87880; stroke:none;" d="M11 25L11 34L12 34L11 25z"/>
<path style="fill:#d5767c; stroke:none;" d="M36 25L36 34L37 34L36 25z"/>
<path style="fill:#f29098; stroke:none;" d="M15 26L15 35L16 35L15 26z"/>
<path style="fill:#fad6d9; stroke:none;" d="M17 26L17 35L18 35L17 26z"/>
<path style="fill:#b11e26; stroke:none;" d="M41 26C33.4816 36.9591 30.2703 38 17 38L16 42L42 42L41 26z"/>
<path style="fill:#e12332; stroke:none;" d="M19 27L21 35L19 27z"/>
<path style="fill:#f3a4aa; stroke:none;" d="M20 27L21 35L22 35L22 27L20 27z"/>
<path style="fill:#dc2231; stroke:none;" d="M22 27L22 35L23 35L22 27z"/>
<path style="fill:#cd202d; stroke:none;" d="M31 27L31 28L31 30L31 31L34 27L31 27z"/>
<path style="fill:#f7d7d9; stroke:none;" d="M26 28L26 34L27 34L26 28z"/>
<path style="fill:#d34a54; stroke:none;" d="M30 28C30.0127 31.0113 32.6293 38.364 34 32L33 32L33 34L32 34L32 28L30 28z"/>
<path style="fill:#fefbfb; stroke:none;" d="M32.3333 28.6667L32.6667 29.3333L32.3333 28.6667z"/>
<path style="fill:#f1c4c7; stroke:none;" d="M34 28L32 34L33 34C33.6534 32.0399 34 31.446 34 34L35 34L34 28z"/>
<path style="fill:#e7828a; stroke:none;" d="M27 29L27 34L28 34L27 29z"/>
<path style="fill:#efc0c4; stroke:none;" d="M14 37L14 38L34 38L14 37z"/>
</svg>
